{
	"asset":{
		"generator":"Khronos glTF Blender I/O v4.1.62",
		"version":"2.0"
	},
	"extensionsUsed":[
		"KHR_materials_specular",
		"KHR_materials_ior"
	],
	"scene":0,
	"scenes":[
		{
			"name":"Scene",
			"nodes":[
				0,
				1,
				2,
				3,
				4,
				5,
				6
			]
		}
	],
	"nodes":[
		{
			"mesh":0,
			"name":"Eyes",
			"rotation":[
				0.70710688829422,
				0,
				0,
				0.7071066498756409
			],
			"scale":[
				0.5,
				0.5,
				0.5
			],
			"translation":[
				1.319917917251587,
				2.482114791870117,
				0
			]
		},
		{
			"mesh":1,
			"name":"BottomGumz",
			"rotation":[
				0.70710688829422,
				0,
				0,
				0.7071066498756409
			],
			"scale":[
				0.5,
				0.5,
				0.5
			],
			"translation":[
				1.319917917251587,
				2.482114791870117,
				0
			]
		},
		{
			"mesh":2,
			"name":"BottomTeeth",
			"rotation":[
				0.70710688829422,
				0,
				0,
				0.7071066498756409
			],
			"scale":[
				0.5,
				0.5,
				0.5
			],
			"translation":[
				1.319917917251587,
				2.482114791870117,
				0
			]
		},
		{
			"mesh":3,
			"name":"TopTeeth",
			"rotation":[
				0.70710688829422,
				0,
				0,
				0.7071066498756409
			],
			"scale":[
				0.5,
				0.5,
				0.5
			],
			"translation":[
				1.319917917251587,
				2.482114791870117,
				0
			]
		},
		{
			"mesh":4,
			"name":"TopGumz",
			"rotation":[
				0.70710688829422,
				0,
				0,
				0.7071066498756409
			],
			"scale":[
				0.5,
				0.5,
				0.5
			],
			"translation":[
				1.319917917251587,
				2.482114791870117,
				0
			]
		},
		{
			"mesh":5,
			"name":"Tounge",
			"rotation":[
				0.70710688829422,
				0,
				0,
				0.7071066498756409
			],
			"scale":[
				0.5,
				0.5,
				0.5
			],
			"translation":[
				1.319917917251587,
				2.482114791870117,
				0
			]
		},
		{
			"mesh":6,
			"name":"Body_UV3",
			"rotation":[
				0.7071068286895752,
				0,
				0,
				0.7071068286895752
			],
			"scale":[
				0.5,
				0.5,
				0.5
			],
			"translation":[
				1.319917917251587,
				2.4725570678710938,
				0
			]
		}
	],
	"materials":[
		{
			"doubleSided":true,
			"extensions":{
				"KHR_materials_specular":{
					"specularColorFactor":[
						2.0,
						2.0,
						2.0
					]
				},
				"KHR_materials_ior":{
					"ior":1.4500000476837158
				}
			},
			"name":"Eyes0",
			"pbrMetallicRoughness":{
				"baseColorTexture":{
					"index":0
				},
				"roughnessFactor":0.30000001192092896
			}
		},
		{
			"doubleSided":true,
			"extensions":{
				"KHR_materials_specular":{
					"specularColorFactor":[
						2.0,
						2.0,
						2.0
					]
				},
				"KHR_materials_ior":{
					"ior":1.4500000476837158
				}
			},
			"name":"BottomGumz0",
			"pbrMetallicRoughness":{
				"baseColorTexture":{
					"index":1
				}
			}
		},
		{
			"doubleSided":true,
			"extensions":{
				"KHR_materials_specular":{
					"specularColorFactor":[
						2.0,
						2.0,
						2.0
					]
				},
				"KHR_materials_ior":{
					"ior":1.4500000476837158
				}
			},
			"name":"BottomTeeth0",
			"pbrMetallicRoughness":{
				"baseColorTexture":{
					"index":2
				}
			}
		},
		{
			"doubleSided":true,
			"extensions":{
				"KHR_materials_specular":{
					"specularColorFactor":[
						2.0,
						2.0,
						2.0
					]
				},
				"KHR_materials_ior":{
					"ior":1.4500000476837158
				}
			},
			"name":"TopTeeth0",
			"pbrMetallicRoughness":{
				"baseColorTexture":{
					"index":3
				}
			}
		},
		{
			"doubleSided":true,
			"extensions":{
				"KHR_materials_specular":{
					"specularColorFactor":[
						2.0,
						2.0,
						2.0
					]
				},
				"KHR_materials_ior":{
					"ior":1.4500000476837158
				}
			},
			"name":"TopGumz0",
			"pbrMetallicRoughness":{
				"baseColorTexture":{
					"index":4
				},
				"roughnessFactor":0.5
			}
		},
		{
			"doubleSided":true,
			"extensions":{
				"KHR_materials_specular":{
					"specularColorFactor":[
						2.0,
						2.0,
						2.0
					]
				},
				"KHR_materials_ior":{
					"ior":1.4500000476837158
				}
			},
			"name":"Tounge0",
			"pbrMetallicRoughness":{
				"baseColorTexture":{
					"index":5
				}
			}
		},
		{
			"doubleSided":true,
			"extensions":{
				"KHR_materials_specular":{
					"specularColorFactor":[
						2.0,
						2.0,
						2.0
					]
				}
			},
			"name":"Body_UV30.001",
			"pbrMetallicRoughness":{
				"baseColorTexture":{
					"index":6
				}
			}
		}
	],
	"meshes":[
		{
			"name":"Eyes",
			"primitives":[
				{
					"attributes":{
						"POSITION":0,
						"NORMAL":1,
						"TEXCOORD_0":2
					},
					"indices":3,
					"material":0
				}
			]
		},
		{
			"name":"BottomGumz",
			"primitives":[
				{
					"attributes":{
						"POSITION":4,
						"NORMAL":5,
						"TEXCOORD_0":6
					},
					"indices":7,
					"material":1
				}
			]
		},
		{
			"name":"BottomTeeth",
			"primitives":[
				{
					"attributes":{
						"POSITION":8,
						"NORMAL":9,
						"TEXCOORD_0":10
					},
					"indices":11,
					"material":2
				}
			]
		},
		{
			"name":"TopTeeth",
			"primitives":[
				{
					"attributes":{
						"POSITION":12,
						"NORMAL":13,
						"TEXCOORD_0":14
					},
					"indices":15,
					"material":3
				}
			]
		},
		{
			"name":"TopGumz",
			"primitives":[
				{
					"attributes":{
						"POSITION":16,
						"NORMAL":17,
						"TEXCOORD_0":18
					},
					"indices":19,
					"material":4
				}
			]
		},
		{
			"name":"Tounge",
			"primitives":[
				{
					"attributes":{
						"POSITION":20,
						"NORMAL":21,
						"TEXCOORD_0":22
					},
					"indices":23,
					"material":5
				}
			]
		},
		{
			"name":"Body_UV3.001",
			"primitives":[
				{
					"attributes":{
						"POSITION":24,
						"NORMAL":25,
						"TEXCOORD_0":26
					},
					"indices":27,
					"material":6
				}
			]
		}
	],
	"textures":[
		{
			"sampler":0,
			"source":0
		},
		{
			"sampler":0,
			"source":1
		},
		{
			"sampler":0,
			"source":2
		},
		{
			"sampler":0,
			"source":3
		},
		{
			"sampler":0,
			"source":4
		},
		{
			"sampler":0,
			"source":5
		},
		{
			"sampler":0,
			"source":6
		}
	],
	"images":[
		{
			"mimeType":"image/png",
			"name":"Diffuse Texture",
			"uri":"textures/Diffuse%20Texture.png"
		},
		{
			"mimeType":"image/png",
			"name":"Diffuse Texture",
			"uri":"textures/Diffuse%20Texture-1.png"
		},
		{
			"mimeType":"image/png",
			"name":"Diffuse Texture",
			"uri":"textures/Diffuse%20Texture-2.png"
		},
		{
			"mimeType":"image/png",
			"name":"Diffuse Texture",
			"uri":"textures/Diffuse%20Texture-3.png"
		},
		{
			"mimeType":"image/png",
			"name":"Diffuse Texture",
			"uri":"textures/Diffuse%20Texture-4.png"
		},
		{
			"mimeType":"image/png",
			"name":"Diffuse Texture",
			"uri":"textures/Diffuse%20Texture-5.png"
		},
		{
			"mimeType":"image/png",
			"name":"Diffuse Texture",
			"uri":"textures/Diffuse%20Texture-6.png"
		}
	],
	"accessors":[
		{
			"bufferView":0,
			"componentType":5126,
			"count":16257,
			"max":[
				-2.5269875526428223,
				2.4448070526123047,
				-3.33215594291687
			],
			"min":[
				-4.9855265617370605,
				1.5117977857589722,
				-4.2689290046691895
			],
			"type":"VEC3"
		},
		{
			"bufferView":1,
			"componentType":5126,
			"count":16257,
			"type":"VEC3"
		},
		{
			"bufferView":2,
			"componentType":5126,
			"count":16257,
			"type":"VEC2"
		},
		{
			"bufferView":3,
			"componentType":5123,
			"count":96768,
			"type":"SCALAR"
		},
		{
			"bufferView":4,
			"componentType":5126,
			"count":37803,
			"max":[
				-3.051759719848633,
				2.035346508026123,
				-2.798201560974121
			],
			"min":[
				-4.480023384094238,
				1.6857826709747314,
				-2.951613664627075
			],
			"type":"VEC3"
		},
		{
			"bufferView":5,
			"componentType":5126,
			"count":37803,
			"type":"VEC3"
		},
		{
			"bufferView":6,
			"componentType":5126,
			"count":37803,
			"type":"VEC2"
		},
		{
			"bufferView":7,
			"componentType":5123,
			"count":223872,
			"type":"SCALAR"
		},
		{
			"bufferView":8,
			"componentType":5126,
			"count":6006,
			"max":[
				-3.2244455814361572,
				2.0223138332366943,
				-2.8067214488983154
			],
			"min":[
				-4.304278373718262,
				1.8424322605133057,
				-2.9676461219787598
			],
			"type":"VEC3"
		},
		{
			"bufferView":9,
			"componentType":5126,
			"count":6006,
			"type":"VEC3"
		},
		{
			"bufferView":10,
			"componentType":5126,
			"count":6006,
			"type":"VEC2"
		},
		{
			"bufferView":11,
			"componentType":5123,
			"count":34560,
			"type":"SCALAR"
		},
		{
			"bufferView":12,
			"componentType":5126,
			"count":6006,
			"max":[
				-3.1717798709869385,
				2.075774669647217,
				-2.995851516723633
			],
			"min":[
				-4.34517240524292,
				1.8714940547943115,
				-3.1478092670440674
			],
			"type":"VEC3"
		},
		{
			"bufferView":13,
			"componentType":5126,
			"count":6006,
			"type":"VEC3"
		},
		{
			"bufferView":14,
			"componentType":5126,
			"count":6006,
			"type":"VEC2"
		},
		{
			"bufferView":15,
			"componentType":5123,
			"count":34560,
			"type":"SCALAR"
		},
		{
			"bufferView":16,
			"componentType":5126,
			"count":36603,
			"max":[
				-3.007779359817505,
				2.1032285690307617,
				-3.028712749481201
			],
			"min":[
				-4.514466285705566,
				1.7390997409820557,
				-3.1912014484405518
			],
			"type":"VEC3"
		},
		{
			"bufferView":17,
			"componentType":5126,
			"count":36603,
			"type":"VEC3"
		},
		{
			"bufferView":18,
			"componentType":5126,
			"count":36603,
			"type":"VEC2"
		},
		{
			"bufferView":19,
			"componentType":5123,
			"count":216480,
			"type":"SCALAR"
		},
		{
			"bufferView":20,
			"componentType":5126,
			"count":8143,
			"max":[
				-2.9222829341888428,
				1.9193437099456787,
				-2.8600504398345947
			],
			"min":[
				-4.6084208488464355,
				1.0086625814437866,
				-3.263777256011963
			],
			"type":"VEC3"
		},
		{
			"bufferView":21,
			"componentType":5126,
			"count":8143,
			"type":"VEC3"
		},
		{
			"bufferView":22,
			"componentType":5126,
			"count":8143,
			"type":"VEC2"
		},
		{
			"bufferView":23,
			"componentType":5123,
			"count":48384,
			"type":"SCALAR"
		},
		{
			"bufferView":24,
			"componentType":5126,
			"count":239053,
			"max":[
				4.62324333190918,
				7.38981294631958,
				4.45000696182251
			],
			"min":[
				-11.44743824005127,
				-2.3728556632995605,
				-5.8420233726501465
			],
			"type":"VEC3"
		},
		{
			"bufferView":25,
			"componentType":5126,
			"count":239053,
			"type":"VEC3"
		},
		{
			"bufferView":26,
			"componentType":5126,
			"count":239053,
			"type":"VEC2"
		},
		{
			"bufferView":27,
			"componentType":5125,
			"count":1408512,
			"type":"SCALAR"
		}
	],
	"bufferViews":[
		{
			"buffer":0,
			"byteLength":195084,
			"byteOffset":0,
			"target":34962
		},
		{
			"buffer":0,
			"byteLength":195084,
			"byteOffset":195084,
			"target":34962
		},
		{
			"buffer":0,
			"byteLength":130056,
			"byteOffset":390168,
			"target":34962
		},
		{
			"buffer":0,
			"byteLength":193536,
			"byteOffset":520224,
			"target":34963
		},
		{
			"buffer":0,
			"byteLength":453636,
			"byteOffset":713760,
			"target":34962
		},
		{
			"buffer":0,
			"byteLength":453636,
			"byteOffset":1167396,
			"target":34962
		},
		{
			"buffer":0,
			"byteLength":302424,
			"byteOffset":1621032,
			"target":34962
		},
		{
			"buffer":0,
			"byteLength":447744,
			"byteOffset":1923456,
			"target":34963
		},
		{
			"buffer":0,
			"byteLength":72072,
			"byteOffset":2371200,
			"target":34962
		},
		{
			"buffer":0,
			"byteLength":72072,
			"byteOffset":2443272,
			"target":34962
		},
		{
			"buffer":0,
			"byteLength":48048,
			"byteOffset":2515344,
			"target":34962
		},
		{
			"buffer":0,
			"byteLength":69120,
			"byteOffset":2563392,
			"target":34963
		},
		{
			"buffer":0,
			"byteLength":72072,
			"byteOffset":2632512,
			"target":34962
		},
		{
			"buffer":0,
			"byteLength":72072,
			"byteOffset":2704584,
			"target":34962
		},
		{
			"buffer":0,
			"byteLength":48048,
			"byteOffset":2776656,
			"target":34962
		},
		{
			"buffer":0,
			"byteLength":69120,
			"byteOffset":2824704,
			"target":34963
		},
		{
			"buffer":0,
			"byteLength":439236,
			"byteOffset":2893824,
			"target":34962
		},
		{
			"buffer":0,
			"byteLength":439236,
			"byteOffset":3333060,
			"target":34962
		},
		{
			"buffer":0,
			"byteLength":292824,
			"byteOffset":3772296,
			"target":34962
		},
		{
			"buffer":0,
			"byteLength":432960,
			"byteOffset":4065120,
			"target":34963
		},
		{
			"buffer":0,
			"byteLength":97716,
			"byteOffset":4498080,
			"target":34962
		},
		{
			"buffer":0,
			"byteLength":97716,
			"byteOffset":4595796,
			"target":34962
		},
		{
			"buffer":0,
			"byteLength":65144,
			"byteOffset":4693512,
			"target":34962
		},
		{
			"buffer":0,
			"byteLength":96768,
			"byteOffset":4758656,
			"target":34963
		},
		{
			"buffer":0,
			"byteLength":2868636,
			"byteOffset":4855424,
			"target":34962
		},
		{
			"buffer":0,
			"byteLength":2868636,
			"byteOffset":7724060,
			"target":34962
		},
		{
			"buffer":0,
			"byteLength":1912424,
			"byteOffset":10592696,
			"target":34962
		},
		{
			"buffer":0,
			"byteLength":5634048,
			"byteOffset":12505120,
			"target":34963
		}
	],
	"samplers":[
		{
			"magFilter":9729,
			"minFilter":9987
		}
	],
	"buffers":[
		{
			"byteLength":18139168,
			"uri":"KungFu.bin"
		}
	]
}
